# ProBuilder 4.2.3
# https://unity3d.com/unity/features/worldbuilding/probuilder
# 2020/9/12 16:23:46

mtllib ./Cylinder.mtl
o Cylinder

g Cylinder
v -0.35 -0.9 0
v -0.35 0.9 0
v -0.2474874 -0.9 0.2474874
v -0.2474874 0.9 0.2474874
v 2.980232E-08 -0.9 0.35
v 2.980232E-08 0.9 0.35
v 0.2474873 -0.9 0.2474874
v 0.2474873 0.9 0.2474874
v 0.35 -0.9 -3.059797E-08
v 0.35 0.9 -3.059797E-08
v 0.2474874 -0.9 -0.2474874
v 0.2474874 0.9 -0.2474874
v 0 -0.9 -0.35
v 0 0.9 -0.35
v -0.2474873 -0.9 -0.2474874
v -0.2474873 0.9 -0.2474874
v 0 -0.9 0
v 0 0.9 0

vt -0.1339392 -0.9
vt -0.1339392 0.9
vt 0.1339392 -0.9
vt 0.1339392 0.9
vt -0.35 0
vt 0 0
vt -0.2474874 0.2474874
vt 0.35 0
vt 0.2474874 0.2474874
vt 2.980232E-08 0.35
vt 0.2474874 -0.2474874
vt -0.2474874 -0.2474874
vt 0 -0.35

vn -0.9238795 0 0.3826834
vn -0.3826834 0 0.9238796
vn 0.3826835 0 0.9238795
vn 0.9238795 0 0.3826835
vn 0.9238796 0 -0.3826834
vn 0.3826835 0 -0.9238795
vn -0.3826834 0 -0.9238796
vn -0.9238795 0 -0.3826835
vn 0 -1 0
vn 0 1 0

usemtl ProBuilderDefault
f 1/5/9 17/6/9 3/7/9
f 3/7/9 17/6/9 5/10/9
f 5/10/9 17/6/9 7/9/9
f 7/9/9 17/6/9 9/8/9
f 9/8/9 17/6/9 11/11/9
f 11/11/9 17/6/9 13/13/9
f 13/13/9 17/6/9 15/12/9
f 15/12/9 17/6/9 1/5/9
f 4/9/10 18/6/10 2/8/10
f 6/10/10 18/6/10 4/9/10
f 8/7/10 18/6/10 6/10/10
f 10/5/10 18/6/10 8/7/10
f 12/12/10 18/6/10 10/5/10
f 14/13/10 18/6/10 12/12/10
f 16/11/10 18/6/10 14/13/10
f 2/8/10 18/6/10 16/11/10
f 4/4/1 2/2/1 1/1/1
f 1/1/1 3/3/1 4/4/1
f 6/4/2 4/2/2 3/1/2
f 3/1/2 5/3/2 6/4/2
f 8/4/3 6/2/3 5/1/3
f 5/1/3 7/3/3 8/4/3
f 10/4/4 8/2/4 7/1/4
f 7/1/4 9/3/4 10/4/4
f 12/4/5 10/2/5 9/1/5
f 9/1/5 11/3/5 12/4/5
f 14/4/6 12/2/6 11/1/6
f 11/1/6 13/3/6 14/4/6
f 16/4/7 14/2/7 13/1/7
f 13/1/7 15/3/7 16/4/7
f 2/4/8 16/2/8 15/1/8
f 15/1/8 1/3/8 2/4/8

