# ProBuilder 4.1.0
# https://unity3d.com/unity/features/worldbuilding/probuilder
# 2019-09-13 10:46:13 AM

mtllib ./Altar.mtl
o Altar

g Altar
v 0.5 1 1.5
v -2.5 1 1.5
v 0.5 1 -0.5
v -2.5 1 -0.5
v 0 0 0
v -2 0 0
v 0 0 1
v -2 0 1
v 0 0.1999998 0
v -2 0.1999998 0
v -2 0.1999998 1
v 0 0.1999998 1

vt -1.5 1
vt 1.5 1
vt -1.5 -1
vt 1.5 -1
vt 1 -0.5
vt -1 -0.5
vt 1 0.5
vt -1 0.5
vt 1 -0.3427832
vt -1 -0.3427832
vt -1 -0.1505336
vt 1 -0.1505336
vt -1.5 0.7563068
vt 1.5 0.7563068
vt 0.5 -0.2049419
vt -0.5 -0.2049419
vt -0.5 -0.01269233
vt 0.5 -0.01269233
vt -1 0.8941481
vt 1 0.8941481

vn 0 1 0
vn 0 -1 0
vn 0 0 -1
vn 0 -0.5299989 -0.8479984
vn -1 0 0
vn -0.8479984 -0.5299989 0
vn 0 0 1
vn 0 -0.5299989 0.8479984
vn 1 0 0
vn 0.8479984 -0.5299989 0

usemtl Altar_Stone
f 7/7/2 8/8/2 6/6/2 5/5/2

usemtl Altar_Stone
f 10/12/4 4/14/4 3/13/4 9/11/4
f 2/20/6 4/19/6 10/17/6 11/18/6
f 1/14/8 2/13/8 11/11/8 12/12/8
f 9/18/10 3/20/10 1/19/10 12/17/10

usemtl Altar_Stone
f 3/3/1 4/4/1 2/2/1 1/1/1
f 6/9/3 10/12/3 9/11/3 5/10/3
f 11/18/5 10/17/5 6/16/5 8/15/5
f 12/12/7 11/11/7 8/10/7 7/9/7
f 5/15/9 9/18/9 12/17/9 7/16/9

