# ProBuilder 4.1.0
# https://unity3d.com/unity/features/worldbuilding/probuilder
# 2019-09-11 2:13:08 PM

mtllib ./Basic_Floor.mtl
o Basic_Floor

g Basic_Floor
v -1.5 -0.25 3
v -3 -0.25 3
v -1.5 0.25 3
v -3 0.25 3
v -3 -0.25 1.5
v -3 0.25 1.5
v -1.5 -0.25 1.5
v -1.5 0.25 1.5

vt 0 -0.25
vt -1.5 -0.25
vt 0 0.25
vt -1.5 0.25
vt 1.5 -0.25
vt 1.5 0.25
vt 0 1.5
vt 1.5 1.5
vt 0 0
vt 1.5 0
vt -1.5 0
vt -1.5 1.5

vn 0 0 1
vn -1 0 0
vn 0 0 -1
vn 1 0 0
vn 0 1 0
vn 0 -1 0

usemtl Floor_Grey
f 3/3/1 4/4/1 2/2/1 1/1/1
f 4/6/2 6/3/2 5/1/2 2/5/2
f 6/6/3 8/3/3 7/1/3 5/5/3
f 8/3/4 3/4/4 1/2/4 7/1/4
f 8/9/5 6/10/5 4/8/5 3/7/5
f 1/7/6 2/12/6 5/11/6 7/9/6

g Basic_Floor
v -1.5 -0.25 1.5
v -3 -0.25 1.5
v -1.5 0.25 1.5
v -3 0.25 1.5
v -3 -0.25 0
v -3 0.25 0
v -1.5 -0.25 0
v -1.5 0.25 0

vt 0 -0.25
vt -1.5 -0.25
vt 0 0.25
vt -1.5 0.25
vt 1.5 -0.25
vt 1.5 0.25
vt 0 1.5
vt 1.5 1.5
vt 0 0
vt 1.5 0
vt -1.5 0
vt -1.5 1.5

vn 0 0 1
vn -1 0 0
vn 0 0 -1
vn 1 0 0
vn 0 1 0
vn 0 -1 0

usemtl Floor_DarkGrey
f 11/15/7 12/16/7 10/14/7 9/13/7
f 12/18/8 14/15/8 13/13/8 10/17/8
f 14/18/9 16/15/9 15/13/9 13/17/9
f 16/15/10 11/16/10 9/14/10 15/13/10
f 16/21/11 14/22/11 12/20/11 11/19/11
f 9/19/12 10/24/12 13/23/12 15/21/12

g Basic_Floor
v 0 -0.25 3
v -1.5 -0.25 3
v 0 0.25 3
v -1.5 0.25 3
v -1.5 -0.25 1.5
v -1.5 0.25 1.5
v 0 -0.25 1.5
v 0 0.25 1.5

vt 0 -0.25
vt -1.5 -0.25
vt 0 0.25
vt -1.5 0.25
vt 1.5 -0.25
vt 1.5 0.25
vt 0 1.5
vt 1.5 1.5
vt 0 0
vt 1.5 0
vt -1.5 0
vt -1.5 1.5

vn 0 0 1
vn -1 0 0
vn 0 0 -1
vn 1 0 0
vn 0 1 0
vn 0 -1 0

usemtl Floor_DarkGrey
f 19/27/13 20/28/13 18/26/13 17/25/13
f 20/30/14 22/27/14 21/25/14 18/29/14
f 22/30/15 24/27/15 23/25/15 21/29/15
f 24/27/16 19/28/16 17/26/16 23/25/16
f 24/33/17 22/34/17 20/32/17 19/31/17
f 17/31/18 18/36/18 21/35/18 23/33/18

g Basic_Floor
v 0 -0.25 1.5
v -1.5 -0.25 1.5
v 0 0.25 1.5
v -1.5 0.25 1.5
v -1.5 -0.25 0
v -1.5 0.25 0
v 0 -0.25 0
v 0 0.25 0

vt 0 -0.25
vt -1.5 -0.25
vt 0 0.25
vt -1.5 0.25
vt 1.5 -0.25
vt 1.5 0.25
vt 0 1.5
vt 1.5 1.5
vt 0 0
vt 1.5 0
vt -1.5 0
vt -1.5 1.5

vn 0 0 1
vn -1 0 0
vn 0 0 -1
vn 1 0 0
vn 0 1 0
vn 0 -1 0

usemtl Floor_Grey
f 27/39/19 28/40/19 26/38/19 25/37/19
f 28/42/20 30/39/20 29/37/20 26/41/20
f 30/42/21 32/39/21 31/37/21 29/41/21
f 32/39/22 27/40/22 25/38/22 31/37/22
f 32/45/23 30/46/23 28/44/23 27/43/23
f 25/43/24 26/48/24 29/47/24 31/45/24

