# ProBuilder 4.1.0
# https://unity3d.com/unity/features/worldbuilding/probuilder
# 2019-09-11 2:16:08 PM

mtllib ./Floor_Indented.mtl
o Floor_Indented

g Floor_Indented
v -3 0 1.49999
v -3 0.25 1.49999
v -3 0.25 2.99999
v -3 0 2.99999
v -2.75 0.25 1.499991
v -2.125 0.25 1.499991
v -1.5 0.25 1.499991
v -1.5 0.25 2.999991
v -2.75 0.25 2.999991
v -2.125 0.25 2.999991
v -2.75 0 1.499991
v -2.75 0 2.999991
v -1.5 0 2.999991
v -2.75 -0.25 1.499991
v -2.15 -0.25 1.499991
v -1.5 -0.25 1.499991
v -1.5 0 1.499991
v -1.5 0 2.749991
v -1.5 0 2.499991
v -1.5 0 2.249991
v -1.5 0 1.999991
v -1.5 0 1.749991
v -1.5 -0.25 2.749991
v -1.5 -0.25 2.499991
v -1.5 -0.25 2.249991
v -1.5 -0.25 1.999991
v -1.5 -0.25 1.749991
v -2.75 -0.25 1.749991
v -2.75 -0.25 1.999991
v -2.75 -0.25 2.249991
v -2.75 -0.25 2.49999
v -2.75 -0.25 2.749991
v -2.75 0 1.749991
v -2.75 0 1.999991
v -2.75 0 2.249991
v -2.75 0 2.499991
v -2.75 0 2.749991

vt 0 0
vt 0 0.25
vt 1.5 0.25
vt 1.5 0
vt 1.5 1.5
vt 1.25 0
vt 0.625 0
vt 0 1.5
vt 1.25 1.5
vt 0.625 1.5
vt 1.25 0.25
vt -1.5 0
vt -1.5 0.25
vt -1.25 0.25
vt -1.25 0
vt -0.625 0.25
vt 0.625 0.25
vt 1.25 -0.25
vt 0.65 -0.25
vt 0 -0.25
vt -0.9999999 0
vt -0.75 0
vt -0.5 0
vt -0.25 0
vt 0 1.25
vt 0 0.9999999
vt 0 0.75
vt 0 0.5
vt -0.65 0
vt -1.25 0.5
vt -1.25 0.75
vt -1.25 0.9999999
vt -1.25 1.25
vt -1.25 -0.25
vt -0.25 -0.25
vt -0.5 -0.25
vt -0.75 -0.25
vt -0.9999999 -0.25
vt -1.5 1.5
vt -1.25 1.5
vt -1.25 0.5
vt -1.25 1
vt 0.9999999 -0.25
vt 0.75 -0.25
vt 0.5 -0.25
vt 0.25 -0.25
vt 0.25 0
vt 0.5 0
vt 0.75 0
vt 1 0

vn -1 0 -4.768371E-07
vn 0 1 0
vn 4.768371E-07 0 -1
vn -4.768371E-07 0 1
vn 1 0 4.768371E-07
vn 0 -1 0

usemtl Floor_Grey
f 8/8/2 7/1/2 6/7/2
f 9/9/2 2/4/2 3/5/2
f 9/9/2 5/6/2 2/4/2
f 6/7/2 5/6/2 9/9/2
f 10/10/2 6/7/2 9/9/2
f 8/8/2 6/7/2 10/10/2
f 6/17/3 11/6/3 5/11/3
f 15/19/3 14/18/3 11/6/3
f 6/17/3 15/19/3 11/6/3
f 17/1/3 16/20/3 15/19/3
f 15/19/3 6/17/3 17/1/3
f 6/17/3 7/2/3 17/1/3
f 1/12/6 11/15/6 33/14/6
f 1/12/6 33/14/6 34/41/6
f 1/12/6 34/41/6 35/31/6
f 4/39/6 1/12/6 35/31/6
f 36/42/6 4/39/6 35/31/6
f 37/33/6 4/39/6 36/42/6
f 4/39/6 37/33/6 12/40/6
f 10/16/4 13/1/4 8/2/4
f 13/1/4 10/16/4 12/15/4
f 10/16/4 9/14/4 12/15/4
f 22/24/5 17/1/5 7/2/5
f 21/23/5 22/24/5 7/2/5
f 20/22/5 21/23/5 7/2/5
f 8/13/5 13/12/5 18/15/5
f 8/13/5 18/15/5 19/21/5
f 8/13/5 19/21/5 20/22/5
f 20/22/5 7/2/5 8/13/5
f 32/33/6 31/32/6 23/25/6
f 31/32/6 24/26/6 23/25/6
f 31/32/6 30/31/6 24/26/6
f 30/31/6 25/27/6 24/26/6
f 30/31/6 15/29/6 25/27/6
f 30/31/6 29/30/6 15/29/6
f 29/30/6 28/14/6 15/29/6
f 28/14/6 14/15/6 15/29/6
f 15/29/6 26/28/6 25/27/6
f 15/29/6 27/2/6 26/28/6
f 15/29/6 16/1/6 27/2/6
f 22/24/5 27/35/5 17/1/5
f 26/36/5 27/35/5 22/24/5
f 21/23/5 26/36/5 22/24/5
f 25/37/5 26/36/5 21/23/5
f 20/22/5 25/37/5 21/23/5
f 24/38/5 25/37/5 20/22/5
f 19/21/5 24/38/5 20/22/5
f 23/34/5 24/38/5 19/21/5
f 18/15/5 23/34/5 19/21/5
f 27/35/5 16/20/5 17/1/5
f 36/50/1 32/18/1 37/6/1
f 36/50/1 31/43/1 32/18/1
f 35/49/1 31/43/1 36/50/1
f 35/49/1 30/44/1 31/43/1
f 34/48/1 30/44/1 35/49/1
f 34/48/1 29/45/1 30/44/1
f 28/46/1 29/45/1 34/48/1
f 33/47/1 28/46/1 34/48/1
f 28/46/1 33/47/1 14/20/1
f 33/47/1 11/1/1 14/20/1
f 2/2/1 1/1/1 4/4/1
f 4/4/1 3/3/1 2/2/1
f 2/3/3 5/11/3 11/6/3
f 11/6/3 1/4/3 2/3/3
f 3/13/4 4/12/4 12/15/4
f 12/15/4 9/14/4 3/13/4
f 32/34/4 23/20/4 18/1/4
f 18/1/4 37/15/4 32/34/4
f 13/8/6 12/40/6 37/33/6
f 37/33/6 18/25/6 13/8/6

g Floor_Indented
v -0.25 0 2.99999
v -0.25 0.25 2.99999
v 0 0.25 2.99999
v 0 0 2.99999
v -1.519918E-06 0.25 1.49999
v -1.519918E-06 0 1.49999
v -0.2500015 0.25 1.49999
v -0.2500015 0 1.49999
v -0.875 0.25 2.99999
v -1.5 0.25 2.999991
v -1.500002 0.25 1.499991
v -0.8750015 0.25 1.499991
v -1.500001 0.25 1.749991
v -1.500001 0.25 1.999991
v -1.500001 0.25 2.249991
v -1.5 0.25 2.499991
v -1.5 0.25 2.749991
v -0.2500013 0 1.74999
v -0.250001 0 1.99999
v -0.2500007 0 2.24999
v -0.2500005 0 2.49999
v -0.2500003 0 2.74999
v -1.5 0 2.999991
v -1.500002 -0.25 1.499991
v -0.8750015 -0.25 1.499991
v -0.2500015 -0.25 1.49999
v -1.500002 0 1.499991
v -1.5 0 2.749991
v -1.5 0 2.499991
v -1.500001 0 2.249991
v -1.500001 0 1.999991
v -1.500001 0 1.749991
v -1.500001 -0.25 1.749991
v -1.5 -0.25 2.749991
v -1.5 -0.25 2.499991
v -1.500001 -0.25 2.249991
v -1.500001 -0.25 1.999991
v -0.2500003 -0.25 2.74999
v -0.2500013 -0.25 1.74999
v -0.250001 -0.25 1.99999
v -0.2500007 -0.25 2.24999
v -0.2500005 -0.25 2.49999

vt 1.25 0
vt 1.25 0.25
vt 1.5 0.25
vt 1.5 0
vt 0 0
vt 0 0.25
vt -1.5 0
vt -1.5 0.25
vt -1.25 0.25
vt -1.25 0
vt 0.625 0
vt 0 1.5
vt 1.5 1.5
vt 1.25 1.5
vt 0.625 1.5
vt 0 1.25
vt 0 0.9999999
vt 0 0.75
vt 0 0.5
vt -1.5 1.5
vt -1.25 1.5
vt -1.25 1.25
vt -1.25 0.9999999
vt -1.25 0.75
vt -1.25 0.5
vt 0.625 0.25
vt 0 -0.25
vt -0.625 -0.25
vt -0.625 0.25
vt -1.25 -0.25
vt -0.25 0.25
vt -0.5 0.25
vt -0.75 0.25
vt -0.9999999 0.25
vt -0.25 0
vt -0.5 0
vt -0.75 0
vt -1 0
vt -1.5 -0.25
vt -0.25 -0.25
vt -0.5 -0.25
vt -0.75 -0.25
vt -1 -0.25
vt 0.25 -0.25
vt 0.25 0
vt 0.5 0
vt 0.75 0
vt 0.9999999 0
vt 1.5 -0.25
vt 1.25 -0.25
vt 0.9999999 -0.25
vt 0.75 -0.25
vt 0.5 -0.25
vt 0 1
vt 0 0.5
vt -0.625 1.5

vn 1.013279E-06 0 1
vn 1 0 -1.013279E-06
vn -1.013279E-06 0 -1
vn 0 1 0
vn 0 -1 0
vn -1 0 1.013279E-06

usemtl Floor_DarkGrey
f 54/56/10 47/55/10 46/61/10
f 53/69/10 54/56/10 46/61/10
f 52/68/10 53/69/10 46/61/10
f 44/64/10 40/54/10 42/63/10
f 44/64/10 39/51/10 40/54/10
f 49/65/10 39/51/10 44/64/10
f 49/65/10 46/61/10 39/51/10
f 52/68/10 46/61/10 49/65/10
f 49/65/10 51/67/10 52/68/10
f 49/65/10 50/66/10 51/67/10
f 49/65/10 48/62/10 50/66/10
f 49/79/9 64/55/9 48/56/9
f 62/78/9 61/77/9 64/55/9
f 49/79/9 62/78/9 64/55/9
f 45/60/9 63/80/9 62/78/9
f 49/79/9 45/60/9 62/78/9
f 49/79/9 44/59/9 45/60/9
f 41/57/11 38/60/11 59/59/11
f 41/57/11 59/59/11 58/75/11
f 41/57/11 58/75/11 57/74/11
f 43/70/11 41/57/11 57/74/11
f 56/73/11 43/70/11 57/74/11
f 55/72/11 43/70/11 56/73/11
f 43/70/11 55/72/11 45/71/11
f 38/51/7 39/52/7 46/76/7
f 38/51/7 46/76/7 60/55/7
f 47/56/7 60/55/7 46/76/7
f 48/58/12 64/57/12 69/60/12
f 65/85/12 60/55/12 47/56/12
f 54/81/12 65/85/12 47/56/12
f 54/81/12 53/82/12 65/85/12
f 53/82/12 66/86/12 65/85/12
f 52/83/12 66/86/12 53/82/12
f 52/83/12 67/87/12 66/86/12
f 51/84/12 67/87/12 52/83/12
f 51/84/12 68/88/12 67/87/12
f 50/59/12 68/88/12 51/84/12
f 50/59/12 69/60/12 68/88/12
f 48/58/12 69/60/12 50/59/12
f 66/86/12 72/91/12 65/85/12
f 73/92/12 72/91/12 66/86/12
f 67/87/12 73/92/12 66/86/12
f 74/93/12 73/92/12 67/87/12
f 68/88/12 74/93/12 67/87/12
f 70/80/12 74/93/12 68/88/12
f 69/60/12 70/80/12 68/88/12
f 61/89/12 70/80/12 69/60/12
f 64/57/12 61/89/12 69/60/12
f 72/91/12 71/90/12 65/85/12
f 59/95/8 75/94/8 79/103/8
f 55/51/8 63/99/8 45/54/8
f 55/51/8 76/100/8 63/99/8
f 56/98/8 76/100/8 55/51/8
f 56/98/8 77/101/8 76/100/8
f 57/97/8 77/101/8 56/98/8
f 57/97/8 78/102/8 77/101/8
f 58/96/8 78/102/8 57/97/8
f 58/96/8 79/103/8 78/102/8
f 59/95/8 79/103/8 58/96/8
f 70/66/11 61/62/11 62/106/11
f 70/66/11 62/106/11 74/104/11
f 73/68/11 74/104/11 62/106/11
f 78/74/11 73/68/11 62/106/11
f 72/105/11 73/68/11 78/74/11
f 79/75/11 72/105/11 78/74/11
f 75/59/11 72/105/11 79/75/11
f 75/59/11 71/56/11 72/105/11
f 77/73/11 78/74/11 62/106/11
f 76/72/11 77/73/11 62/106/11
f 63/71/11 76/72/11 62/106/11
f 40/53/7 39/52/7 38/51/7
f 38/51/7 41/54/7 40/53/7
f 40/56/8 41/55/8 43/54/8
f 43/54/8 42/53/8 40/56/8
f 42/58/9 43/57/9 45/60/9
f 45/60/9 44/59/9 42/58/9
f 59/51/7 65/55/7 71/77/7
f 71/77/7 75/100/7 59/51/7
f 65/56/11 59/59/11 38/60/11
f 38/60/11 60/55/11 65/56/11

g Floor_Indented
v -2.75 0 -7.398425E-06
v -2.75 0.25 -7.398425E-06
v -3 0.25 -7.107852E-06
v -3 0 -7.107852E-06
v -2.999998 0.25 1.499993
v -2.999998 0 1.499993
v -2.749998 0.25 1.499993
v -2.749998 0 1.499993
v -2.125 0.25 -8.124856E-06
v -1.5 0.25 -8.851288E-06
v -1.499998 0.25 1.499991
v -2.124998 0.25 1.499992
v -1.499999 0.25 1.249991
v -1.499999 0.25 0.9999911
v -1.499999 0.25 0.7499912
v -1.499999 0.25 0.4999911
v -1.5 0.25 0.2499912
v -2.749999 0 1.249993
v -2.749999 0 0.9999925
v -2.749999 0 0.7499926
v -2.75 0 0.4999926
v -2.75 0 0.2499926
v -1.5 0 -8.851288E-06
v -1.499998 -0.25 1.499991
v -2.124998 -0.25 1.499992
v -2.749998 -0.25 1.499993
v -1.499998 0 1.499991
v -1.5 0 0.2499911
v -1.499999 0 0.4999911
v -1.499999 0 0.7499912
v -1.499999 0 0.9999912
v -1.499999 0 1.249991
v -1.499999 -0.25 1.249991
v -1.5 -0.25 0.2499911
v -1.499999 -0.25 0.4999911
v -1.499999 -0.25 0.7499912
v -1.499999 -0.25 0.9999912
v -2.75 -0.25 0.2499926
v -2.749999 -0.25 1.249993
v -2.749999 -0.25 0.9999925
v -2.749999 -0.25 0.7499926
v -2.75 -0.25 0.4999926

vt 1.25 0
vt 1.25 0.25
vt 1.5 0.25
vt 1.5 0
vt 0 0
vt 0 0.25
vt -1.5 0
vt -1.5 0.25
vt -1.25 0.25
vt -1.25 0
vt 0.625 0
vt 0 1.5
vt 1.5 1.5
vt 1.25 1.5
vt 0.625 1.5
vt 0 1.25
vt 0 0.9999999
vt 0 0.75
vt 0 0.5
vt -1.5 1.5
vt -1.25 1.5
vt -1.25 1.25
vt -1.25 0.9999999
vt -1.25 0.75
vt -1.25 0.5
vt 0.625 0.25
vt 0 -0.25
vt -0.625 -0.25
vt -0.625 0.25
vt -1.25 -0.25
vt -0.25 0.25
vt -0.5 0.25
vt -0.75 0.25
vt -0.9999999 0.25
vt -0.25 0
vt -0.5 0
vt -0.75 0
vt -1 0
vt -1.5 -0.25
vt -0.25 -0.25
vt -0.5 -0.25
vt -0.75 -0.25
vt -1 -0.25
vt 0.25 -0.25
vt 0.25 0
vt 0.5 0
vt 0.75 0
vt 0.9999999 0
vt 1.5 -0.25
vt 1.25 -0.25
vt 0.9999999 -0.25
vt 0.75 -0.25
vt 0.5 -0.25
vt 0 1
vt 0 0.5
vt -0.625 1.5

vn -1.162291E-06 0 -1
vn -1 0 1.162291E-06
vn 1.162291E-06 0 1
vn 0 1 0
vn 0 -1 0
vn 1 0 -1.162291E-06

usemtl Floor_DarkGrey
f 96/112/16 89/111/16 88/117/16
f 95/125/16 96/112/16 88/117/16
f 94/124/16 95/125/16 88/117/16
f 86/120/16 82/110/16 84/119/16
f 86/120/16 81/107/16 82/110/16
f 91/121/16 81/107/16 86/120/16
f 91/121/16 88/117/16 81/107/16
f 94/124/16 88/117/16 91/121/16
f 91/121/16 93/123/16 94/124/16
f 91/121/16 92/122/16 93/123/16
f 91/121/16 90/118/16 92/122/16
f 91/135/15 106/111/15 90/112/15
f 104/134/15 103/133/15 106/111/15
f 91/135/15 104/134/15 106/111/15
f 87/116/15 105/136/15 104/134/15
f 91/135/15 87/116/15 104/134/15
f 91/135/15 86/115/15 87/116/15
f 83/113/17 80/116/17 101/115/17
f 83/113/17 101/115/17 100/131/17
f 83/113/17 100/131/17 99/130/17
f 85/126/17 83/113/17 99/130/17
f 98/129/17 85/126/17 99/130/17
f 97/128/17 85/126/17 98/129/17
f 85/126/17 97/128/17 87/127/17
f 80/107/13 81/108/13 88/132/13
f 80/107/13 88/132/13 102/111/13
f 89/112/13 102/111/13 88/132/13
f 90/114/18 106/113/18 111/116/18
f 107/141/18 102/111/18 89/112/18
f 96/137/18 107/141/18 89/112/18
f 96/137/18 95/138/18 107/141/18
f 95/138/18 108/142/18 107/141/18
f 94/139/18 108/142/18 95/138/18
f 94/139/18 109/143/18 108/142/18
f 93/140/18 109/143/18 94/139/18
f 93/140/18 110/144/18 109/143/18
f 92/115/18 110/144/18 93/140/18
f 92/115/18 111/116/18 110/144/18
f 90/114/18 111/116/18 92/115/18
f 108/142/18 114/147/18 107/141/18
f 115/148/18 114/147/18 108/142/18
f 109/143/18 115/148/18 108/142/18
f 116/149/18 115/148/18 109/143/18
f 110/144/18 116/149/18 109/143/18
f 112/136/18 116/149/18 110/144/18
f 111/116/18 112/136/18 110/144/18
f 103/145/18 112/136/18 111/116/18
f 106/113/18 103/145/18 111/116/18
f 114/147/18 113/146/18 107/141/18
f 101/151/14 117/150/14 121/159/14
f 97/107/14 105/155/14 87/110/14
f 97/107/14 118/156/14 105/155/14
f 98/154/14 118/156/14 97/107/14
f 98/154/14 119/157/14 118/156/14
f 99/153/14 119/157/14 98/154/14
f 99/153/14 120/158/14 119/157/14
f 100/152/14 120/158/14 99/153/14
f 100/152/14 121/159/14 120/158/14
f 101/151/14 121/159/14 100/152/14
f 112/122/17 103/118/17 104/162/17
f 112/122/17 104/162/17 116/160/17
f 115/124/17 116/160/17 104/162/17
f 120/130/17 115/124/17 104/162/17
f 114/161/17 115/124/17 120/130/17
f 121/131/17 114/161/17 120/130/17
f 117/115/17 114/161/17 121/131/17
f 117/115/17 113/112/17 114/161/17
f 119/129/17 120/130/17 104/162/17
f 118/128/17 119/129/17 104/162/17
f 105/127/17 118/128/17 104/162/17
f 82/109/13 81/108/13 80/107/13
f 80/107/13 83/110/13 82/109/13
f 82/112/14 83/111/14 85/110/14
f 85/110/14 84/109/14 82/112/14
f 84/114/15 85/113/15 87/116/15
f 87/116/15 86/115/15 84/114/15
f 101/107/13 107/111/13 113/133/13
f 113/133/13 117/156/13 101/107/13
f 107/112/17 101/115/17 80/116/17
f 80/116/17 102/111/17 107/112/17

g Floor_Indented
v -2.384186E-07 0 1.499992
v -2.384186E-07 0.25 1.499992
v 6.109476E-07 0.25 -7.972121E-06
v 6.109476E-07 0 -7.972121E-06
v -0.2500002 0.25 1.499992
v -0.8750002 0.25 1.499992
v -1.5 0.25 1.499991
v -1.499999 0.25 -8.821487E-06
v -0.2499994 0.25 -8.113682E-06
v -0.8749994 0.25 -8.467585E-06
v -0.2500002 0 1.499992
v -0.2499994 0 -8.113682E-06
v -1.499999 0 -8.821487E-06
v -0.2500002 -0.25 1.499992
v -0.8500002 -0.25 1.499992
v -1.5 -0.25 1.499991
v -1.5 0 1.499991
v -1.5 0 0.2499912
v -1.5 0 0.4999912
v -1.5 0 0.7499912
v -1.5 0 0.9999912
v -1.5 0 1.249991
v -1.5 -0.25 0.2499912
v -1.5 -0.25 0.4999912
v -1.5 -0.25 0.7499912
v -1.5 -0.25 0.9999912
v -1.5 -0.25 1.249991
v -0.2500001 -0.25 1.249992
v -0.25 -0.25 0.9999919
v -0.2499998 -0.25 0.7499919
v -0.2499997 -0.25 0.499992
v -0.2499995 -0.25 0.2499919
v -0.2500001 0 1.249992
v -0.25 0 0.9999919
v -0.2499998 0 0.7499919
v -0.2499997 0 0.4999919
v -0.2499995 0 0.2499919

vt 0 0
vt 0 0.25
vt 1.5 0.25
vt 1.5 0
vt 1.5 1.5
vt 1.25 0
vt 0.625 0
vt 0 1.5
vt 1.25 1.5
vt 0.625 1.5
vt 1.25 0.25
vt -1.5 0
vt -1.5 0.25
vt -1.25 0.25
vt -1.25 0
vt -0.625 0.25
vt 0.625 0.25
vt 1.25 -0.25
vt 0.65 -0.25
vt 0 -0.25
vt -0.9999999 0
vt -0.75 0
vt -0.5 0
vt -0.25 0
vt 0 1.25
vt 0 0.9999999
vt 0 0.75
vt 0 0.5
vt -0.65 0
vt -1.25 0.5
vt -1.25 0.75
vt -1.25 0.9999999
vt -1.25 1.25
vt -1.25 -0.25
vt -0.25 -0.25
vt -0.5 -0.25
vt -0.75 -0.25
vt -0.9999999 -0.25
vt -1.5 1.5
vt -1.25 1.5
vt -1.25 0.5
vt -1.25 1
vt 0.9999999 -0.25
vt 0.75 -0.25
vt 0.5 -0.25
vt 0.25 -0.25
vt 0.25 0
vt 0.5 0
vt 0.75 0
vt 1 0

vn 1 0 5.662441E-07
vn 0 1 0
vn -5.662441E-07 0 1
vn 5.662441E-07 0 -1
vn -1 0 -5.662441E-07
vn 0 -1 0

usemtl Floor_Grey
f 129/170/20 128/163/20 127/169/20
f 130/171/20 123/166/20 124/167/20
f 130/171/20 126/168/20 123/166/20
f 127/169/20 126/168/20 130/171/20
f 131/172/20 127/169/20 130/171/20
f 129/170/20 127/169/20 131/172/20
f 127/179/21 132/168/21 126/173/21
f 136/181/21 135/180/21 132/168/21
f 127/179/21 136/181/21 132/168/21
f 138/163/21 137/182/21 136/181/21
f 136/181/21 127/179/21 138/163/21
f 127/179/21 128/164/21 138/163/21
f 122/174/24 132/177/24 154/176/24
f 122/174/24 154/176/24 155/203/24
f 122/174/24 155/203/24 156/193/24
f 125/201/24 122/174/24 156/193/24
f 157/204/24 125/201/24 156/193/24
f 158/195/24 125/201/24 157/204/24
f 125/201/24 158/195/24 133/202/24
f 131/178/22 134/163/22 129/164/22
f 134/163/22 131/178/22 133/177/22
f 131/178/22 130/176/22 133/177/22
f 143/186/23 138/163/23 128/164/23
f 142/185/23 143/186/23 128/164/23
f 141/184/23 142/185/23 128/164/23
f 129/175/23 134/174/23 139/177/23
f 129/175/23 139/177/23 140/183/23
f 129/175/23 140/183/23 141/184/23
f 141/184/23 128/164/23 129/175/23
f 153/195/24 152/194/24 144/187/24
f 152/194/24 145/188/24 144/187/24
f 152/194/24 151/193/24 145/188/24
f 151/193/24 146/189/24 145/188/24
f 151/193/24 136/191/24 146/189/24
f 151/193/24 150/192/24 136/191/24
f 150/192/24 149/176/24 136/191/24
f 149/176/24 135/177/24 136/191/24
f 136/191/24 147/190/24 146/189/24
f 136/191/24 148/164/24 147/190/24
f 136/191/24 137/163/24 148/164/24
f 143/186/23 148/197/23 138/163/23
f 147/198/23 148/197/23 143/186/23
f 142/185/23 147/198/23 143/186/23
f 146/199/23 147/198/23 142/185/23
f 141/184/23 146/199/23 142/185/23
f 145/200/23 146/199/23 141/184/23
f 140/183/23 145/200/23 141/184/23
f 144/196/23 145/200/23 140/183/23
f 139/177/23 144/196/23 140/183/23
f 148/197/23 137/182/23 138/163/23
f 157/212/19 153/180/19 158/168/19
f 157/212/19 152/205/19 153/180/19
f 156/211/19 152/205/19 157/212/19
f 156/211/19 151/206/19 152/205/19
f 155/210/19 151/206/19 156/211/19
f 155/210/19 150/207/19 151/206/19
f 149/208/19 150/207/19 155/210/19
f 154/209/19 149/208/19 155/210/19
f 149/208/19 154/209/19 135/182/19
f 154/209/19 132/163/19 135/182/19
f 123/164/19 122/163/19 125/166/19
f 125/166/19 124/165/19 123/164/19
f 123/165/21 126/173/21 132/168/21
f 132/168/21 122/166/21 123/165/21
f 124/175/22 125/174/22 133/177/22
f 133/177/22 130/176/22 124/175/22
f 153/196/22 144/182/22 139/163/22
f 139/163/22 158/177/22 153/196/22
f 134/170/24 133/202/24 158/195/24
f 158/195/24 139/187/24 134/170/24

