# ProBuilder 4.1.0
# https://unity3d.com/unity/features/worldbuilding/probuilder
# 2019-09-11 2:15:35 PM

mtllib ./Floor_HalfIndented.mtl
o Floor_HalfIndented

g Floor_HalfIndented
v -1.5 -0.25 -1.192093E-07
v -1.5 -0.25 1.5
v -1.5 0.25 -1.192093E-07
v -1.5 0.25 1.5
v -3 0.25 1.5
v -3 0.25 2.384185E-07
v -2.125 0.25 2.98023E-08
v -2.75 0.25 1.788139E-07
v -2.75 0.25 1.5
v -2.125 0.25 1.5
v -2.75 -0.25 1.5
v -2.125 -0.25 1.5
v -2.75 0 1.5
v -2.75 -0.25 1.788139E-07
v -2.125 -0.25 2.98023E-08
v -2.75 0 1.788139E-07
v -3 0 2.384185E-07
v -3 0 1.5

vt 0 -0.25
vt -1.5 -0.25
vt 0 0.25
vt -1.5 0.25
vt 0 1.5
vt 1.5 1.5
vt 0 0
vt 1.5 0
vt 0.625 0
vt 1.25 0
vt 1.25 1.5
vt 0.625 1.5
vt -1.25 -0.25
vt -1.25 0.25
vt -0.625 -0.25
vt -0.625 0.25
vt -1.25 0
vt 0.625 0.25
vt 1.25 0.25
vt 1.25 -0.25
vt 0.625 -0.25
vt 1.5 0.25
vt -1.5 0
vt -1.25 1.5
vt -0.625 1.5
vt -0.625 0
vt 1.5 -0.25
vt -1.5 1.5

vn 1 0 -2.384186E-07
vn 0 1 0
vn 2.384186E-07 0 1
vn -2.384186E-07 0 -1
vn -1 0 2.384186E-07
vn 0 -1 0

usemtl Floor_DarkGrey
f 4/5/2 3/7/2 7/9/2
f 9/11/2 6/8/2 5/6/2
f 9/11/2 8/10/2 6/8/2
f 7/9/2 8/10/2 9/11/2
f 10/12/2 7/9/2 9/11/2
f 4/5/2 7/9/2 10/12/2
f 7/18/4 16/10/4 8/19/4
f 15/21/4 14/20/4 16/10/4
f 16/10/4 7/18/4 15/21/4
f 15/21/4 7/18/4 1/1/4
f 7/18/4 3/3/4 1/1/4
f 12/15/3 2/1/3 4/3/3
f 10/16/3 12/15/3 4/3/3
f 13/17/3 11/13/3 12/15/3
f 10/16/3 13/17/3 12/15/3
f 10/16/3 9/14/3 13/17/3
f 1/7/6 2/5/6 12/25/6
f 1/7/6 12/25/6 15/26/6
f 14/17/6 15/26/6 12/25/6
f 11/24/6 14/17/6 12/25/6
f 4/4/1 2/2/1 1/1/1
f 1/1/1 3/3/1 4/4/1
f 6/22/4 8/19/4 16/10/4
f 16/10/4 17/8/4 6/22/4
f 6/3/5 17/7/5 18/8/5
f 18/8/5 5/22/5 6/3/5
f 5/4/3 18/23/3 13/17/3
f 13/17/3 9/14/3 5/4/3
f 13/8/5 16/7/5 14/1/5
f 14/1/5 11/27/5 13/8/5
f 18/28/6 17/23/6 16/17/6
f 16/17/6 13/24/6 18/28/6

g Floor_HalfIndented
v -1.5 -0.25 1.5
v -1.500001 -0.25 0
v -1.5 0.25 1.5
v -1.500001 0.25 0
v 0 0 1.499999
v 0 0.25 1.499999
v -1.072883E-06 0.25 -1.072883E-06
v -1.072883E-06 0 -1.072883E-06
v -0.25 0.25 1.499999
v -0.875 0.25 1.5
v -0.2500011 0.25 -8.940696E-07
v -0.8750011 0.25 -4.470348E-07
v -0.2500011 -0.25 -8.940696E-07
v -0.8750011 -0.25 -4.470348E-07
v -0.2500011 0 -8.940696E-07
v -0.25 -0.25 1.499999
v -0.85 -0.25 1.5
v -0.25 0 1.499999

vt 0 -0.25
vt -1.5 -0.25
vt 0 0.25
vt -1.5 0.25
vt 0 0
vt 1.5 0.25
vt 1.5 0
vt 1.5 1.5
vt 1.25 0
vt 0.625 0
vt 0 1.5
vt 1.25 1.5
vt 0.625 1.5
vt -1.25 -0.25
vt -1.25 0.25
vt -0.625 -0.25
vt -0.625 0.25
vt -1.25 0
vt 0.625 0.25
vt 1.25 0.25
vt 1.25 -0.25
vt 0.65 -0.25
vt -1.5 0
vt 1.5 -0.25
vt -1.5 1.5
vt -1.25 1.5
vt -0.625 1.5
vt -0.65 0

vn -1 0 7.152557E-07
vn 1 0 -7.152557E-07
vn 0 1 0
vn -7.152557E-07 0 -1
vn 7.152557E-07 0 1
vn 0 -1 0

usemtl Floor_Grey
f 22/39/9 21/33/9 28/38/9
f 29/40/9 24/35/9 25/36/9
f 29/40/9 27/37/9 24/35/9
f 28/38/9 27/37/9 29/40/9
f 30/41/9 28/38/9 29/40/9
f 22/39/9 28/38/9 30/41/9
f 28/47/11 36/37/11 27/48/11
f 35/50/11 34/49/11 36/37/11
f 36/37/11 28/47/11 35/50/11
f 35/50/11 28/47/11 19/29/11
f 28/47/11 21/31/11 19/29/11
f 32/44/10 20/29/10 22/31/10
f 30/45/10 32/44/10 22/31/10
f 33/46/10 31/42/10 32/44/10
f 30/45/10 33/46/10 32/44/10
f 30/45/10 29/43/10 33/46/10
f 19/33/12 20/39/12 32/55/12
f 19/33/12 32/55/12 35/56/12
f 34/46/12 35/56/12 32/55/12
f 31/54/12 34/46/12 32/55/12
f 22/32/7 20/30/7 19/29/7
f 19/29/7 21/31/7 22/32/7
f 24/31/8 23/33/8 26/35/8
f 26/35/8 25/34/8 24/31/8
f 24/34/11 27/48/11 36/37/11
f 36/37/11 23/35/11 24/34/11
f 25/32/10 26/51/10 33/46/10
f 33/46/10 29/43/10 25/32/10
f 33/35/8 36/33/8 34/29/8
f 34/29/8 31/52/8 33/35/8
f 26/53/12 23/51/12 36/46/12
f 36/46/12 33/54/12 26/53/12

g Floor_HalfIndented
v -1.5 -0.25 3
v -1.500002 -0.25 1.5
v -1.5 0.25 3
v -1.500002 0.25 1.5
v -1.519918E-06 0.25 1.499998
v 0 0.25 2.999999
v -0.875 0.25 2.999999
v -0.25 0.25 2.999999
v -0.2500015 0.25 1.499999
v -0.8750015 0.25 1.499999
v -0.2500015 -0.25 1.499999
v -0.8750015 -0.25 1.499999
v -0.2500015 0 1.499999
v -0.25 -0.25 2.999999
v -0.875 -0.25 2.999999
v -0.25 0 2.999999
v 0 0 2.999999
v -1.519918E-06 0 1.499998

vt 0 -0.25
vt -1.5 -0.25
vt 0 0.25
vt -1.5 0.25
vt 0 1.5
vt 1.5 1.5
vt 0 0
vt 1.5 0
vt 0.625 0
vt 1.25 0
vt 1.25 1.5
vt 0.625 1.5
vt -1.25 -0.25
vt -1.25 0.25
vt -0.625 -0.25
vt -0.625 0.25
vt -1.25 0
vt 0.625 0.25
vt 1.25 0.25
vt 1.25 -0.25
vt 0.625 -0.25
vt 1.5 0.25
vt -1.5 0
vt -1.25 1.5
vt -0.625 1.5
vt -0.625 0
vt 1.5 -0.25
vt -1.5 1.5

vn -1 0 1.013279E-06
vn 0 1 0
vn -1.013279E-06 0 -1
vn 1.013279E-06 0 1
vn 1 0 -1.013279E-06
vn 0 -1 0

usemtl Floor_DarkGrey
f 40/61/14 39/63/14 43/65/14
f 45/67/14 42/64/14 41/62/14
f 45/67/14 44/66/14 42/64/14
f 43/65/14 44/66/14 45/67/14
f 46/68/14 43/65/14 45/67/14
f 40/61/14 43/65/14 46/68/14
f 43/74/16 52/66/16 44/75/16
f 51/77/16 50/76/16 52/66/16
f 52/66/16 43/74/16 51/77/16
f 51/77/16 43/74/16 37/57/16
f 43/74/16 39/59/16 37/57/16
f 48/71/15 38/57/15 40/59/15
f 46/72/15 48/71/15 40/59/15
f 49/73/15 47/69/15 48/71/15
f 46/72/15 49/73/15 48/71/15
f 46/72/15 45/70/15 49/73/15
f 37/63/18 38/61/18 48/81/18
f 37/63/18 48/81/18 51/82/18
f 50/73/18 51/82/18 48/81/18
f 47/80/18 50/73/18 48/81/18
f 40/60/13 38/58/13 37/57/13
f 37/57/13 39/59/13 40/60/13
f 42/78/16 44/75/16 52/66/16
f 52/66/16 53/64/16 42/78/16
f 42/59/17 53/63/17 54/64/17
f 54/64/17 41/78/17 42/59/17
f 41/60/15 54/79/15 49/73/15
f 49/73/15 45/70/15 41/60/15
f 49/64/17 52/63/17 50/57/17
f 50/57/17 47/83/17 49/64/17
f 54/84/18 53/79/18 52/73/18
f 52/73/18 49/80/18 54/84/18

g Floor_HalfIndented
v -1.5 -0.25 1.500001
v -1.500001 -0.25 3
v -1.5 0.25 1.500001
v -1.500001 0.25 3
v -3 0 1.5
v -3 0.25 1.5
v -3.000001 0.25 3
v -3.000001 0 3
v -2.75 0.25 1.5
v -2.125 0.25 1.5
v -2.750001 0.25 3
v -2.125001 0.25 3
v -2.750001 -0.25 3
v -2.125001 -0.25 3
v -2.750001 0 3
v -2.75 -0.25 1.5
v -2.15 -0.25 1.5
v -2.75 0 1.5

vt 0 -0.25
vt -1.5 -0.25
vt 0 0.25
vt -1.5 0.25
vt 0 0
vt 1.5 0.25
vt 1.5 0
vt 1.5 1.5
vt 1.25 0
vt 0.625 0
vt 0 1.5
vt 1.25 1.5
vt 0.625 1.5
vt -1.25 -0.25
vt -1.25 0.25
vt -0.625 -0.25
vt -0.625 0.25
vt -1.25 0
vt 0.625 0.25
vt 1.25 0.25
vt 1.25 -0.25
vt 0.65 -0.25
vt -1.5 0
vt 1.5 -0.25
vt -1.5 1.5
vt -1.25 1.5
vt -0.625 1.5
vt -0.65 0

vn 1 0 4.768371E-07
vn -1 0 -4.768371E-07
vn 0 1 0
vn -4.768371E-07 0 1
vn 4.768371E-07 0 -1
vn 0 -1 0

usemtl Floor_Grey
f 58/95/21 57/89/21 64/94/21
f 65/96/21 60/91/21 61/92/21
f 65/96/21 63/93/21 60/91/21
f 64/94/21 63/93/21 65/96/21
f 66/97/21 64/94/21 65/96/21
f 58/95/21 64/94/21 66/97/21
f 64/103/23 72/93/23 63/104/23
f 71/106/23 70/105/23 72/93/23
f 72/93/23 64/103/23 71/106/23
f 71/106/23 64/103/23 55/85/23
f 64/103/23 57/87/23 55/85/23
f 68/100/22 56/85/22 58/87/22
f 66/101/22 68/100/22 58/87/22
f 69/102/22 67/98/22 68/100/22
f 66/101/22 69/102/22 68/100/22
f 66/101/22 65/99/22 69/102/22
f 55/89/24 56/95/24 68/111/24
f 55/89/24 68/111/24 71/112/24
f 70/102/24 71/112/24 68/111/24
f 67/110/24 70/102/24 68/111/24
f 58/88/19 56/86/19 55/85/19
f 55/85/19 57/87/19 58/88/19
f 60/87/20 59/89/20 62/91/20
f 62/91/20 61/90/20 60/87/20
f 60/90/23 63/104/23 72/93/23
f 72/93/23 59/91/23 60/90/23
f 61/88/22 62/107/22 69/102/22
f 69/102/22 65/99/22 61/88/22
f 69/91/20 72/89/20 70/85/20
f 70/85/20 67/108/20 69/91/20
f 62/109/24 59/107/24 72/102/24
f 72/102/24 69/110/24 62/109/24

