# ProBuilder 4.1.0
# https://unity3d.com/unity/features/worldbuilding/probuilder
# 2019-09-11 3:51:55 PM

mtllib ./Ramp_4m.mtl
o Ramp_4m

g Ramp_4m
v 3 4 6
v 0 4 6
v 3 4.25 6
v 0 4.25 6
v 0 0 0
v 3 0 0
v 0 0.25 0
v 3 0.25 0
v 0 2.166667 2.875
v 0 4.083333 5.75
v 3 4.083333 5.75
v 3 2.166667 2.875
v 0 3.833333 5.75
v 0 1.916667 2.875
v 0 4 5.75
v 0 3.916667 5.75
v 3 1.916667 2.875
v 3 3.833333 5.75
v 3 3.916667 5.75
v 3 4 5.75

vt 3 4
vt 0 4
vt 3 4.25
vt 0 4.25
vt 0 0
vt -3 0
vt 0 0.25
vt -3 0.25
vt 0 3.593995
vt 0 0.138675
vt -3 0.138675
vt -3 7.349778
vt 0 7.049315
vt 0 7.349778
vt -3 7.049315
vt -3 3.593995
vt 5.75 4.083333
vt 5.75 3.833333
vt 2.875 2.166667
vt 2.875 1.916667
vt 5.75 4
vt 5.75 3.916667
vt -2.875 1.916667
vt -2.875 2.166667
vt -5.75 3.833333
vt -5.75 4.083333
vt -5.75 3.916667
vt -5.75 4
vt -6 4
vt -6 4.25
vt 6 4.25
vt 6 4
vt 3 6.91064
vt 3 3.45532
vt 3 -7.347268E-09
vt 8.462388E-09 3.45532
vt 1.692478E-08 6.91064
vt 0 6.000008
vt 0 5.750008
vt 3 6.000008
vt 3 5.750008
vt 0 3.916667
vt 0 3.833333
vt 3 3.916667
vt 3 3.833333
vt 3 4
vt 0 4

vn 0 0 1
vn 0 0 -1
vn 0 0.8320503 -0.5547002
vn -1 0 0
vn 1 0 0
vn 0 -0.8320504 0.5547002
vn 0 -1 1.907349E-06

usemtl Ramp_Blue
f 9/9/3 8/11/3 7/10/3
f 9/9/3 12/16/3 8/11/3
f 11/15/3 12/16/3 9/9/3
f 11/15/3 9/9/3 10/13/3
f 3/12/3 11/15/3 10/13/3
f 3/12/3 10/13/3 4/14/3
f 17/23/5 6/5/5 8/7/5
f 12/24/5 17/23/5 8/7/5
f 12/24/5 18/25/5 17/23/5
f 12/24/5 19/27/5 18/25/5
f 20/28/5 19/27/5 12/24/5
f 11/26/5 20/28/5 12/24/5
f 9/19/4 15/21/4 10/17/4
f 9/19/4 16/22/4 15/21/4
f 16/22/4 9/19/4 13/18/4
f 9/19/4 14/20/4 13/18/4
f 7/7/4 5/5/4 14/20/4
f 9/19/4 7/7/4 14/20/4
f 13/37/6 14/36/6 18/33/6
f 14/36/6 17/34/6 18/33/6
f 14/36/6 5/5/6 17/34/6
f 5/5/6 6/35/6 17/34/6
f 4/4/1 2/2/1 1/1/1
f 1/1/1 3/3/1 4/4/1
f 8/8/2 6/6/2 5/5/2
f 5/5/2 7/7/2 8/8/2
f 11/26/5 3/30/5 1/29/5
f 1/29/5 20/28/5 11/26/5
f 10/17/4 15/21/4 2/32/4
f 2/32/4 4/31/4 10/17/4
f 1/40/7 2/38/7 15/39/7
f 15/39/7 20/41/7 1/40/7
f 19/44/1 16/42/1 13/43/1
f 13/43/1 18/45/1 19/44/1
f 16/42/1 19/44/1 20/46/1
f 20/46/1 15/47/1 16/42/1

