# ProBuilder 4.1.0
# https://unity3d.com/unity/features/worldbuilding/probuilder
# 2019-09-11 2:21:26 PM

mtllib ./Wall_Window.mtl
o Wall_Window

g Wall_Window
v 0.25 0 0
v -0.25 0 0
v 0.25 0 3
v -0.25 0 3
v 0.25 1 0
v 0.25 1 3
v 0.25 1 0.6
v 0.25 1 1.2
v 0.25 1 1.8
v 0.25 1 2.4
v -0.25 1 0
v -0.25 1 3
v -0.25 1 0.6
v -0.25 1 1.2
v -0.25 1 1.8
v -0.25 1 2.4
v -0.25 2 0
v -0.25 3 0
v -0.25 3 0.6
v -0.25 3 3
v -0.25 2 3
v -0.25 3 2.4
v 0.25 2 3
v 0.25 3 3
v 0.25 3 2.4
v 0.25 3 0.6
v 0.25 3 0
v 0.25 2 0
v 0.25 4 3
v -0.25 4 3
v 0.25 4 0
v -0.25 4 0
v 0.25 4 2.4
v 0.25 4 1.8
v 0.25 4 1.2
v 0.25 4 0.6
v -0.25 4 0.6
v -0.25 4 1.2
v -0.25 4 1.8
v -0.25 4 2.4
v 0.25 3.5 0
v 0.25 3.5 3
v 0.25 3.5 0.6
v 0.25 3.5 1.2
v 0.25 3.5 1.8
v 0.25 3.5 2.4
v -0.25 3.5 3
v -0.25 3.5 0
v -0.25 3.5 2.4
v -0.25 3.5 1.8
v -0.25 3.5 1.2
v -0.25 3.5 0.6

vt 0.25 0
vt -0.25 0
vt 0.25 3
vt -0.25 3
vt 0 1
vt -3 0
vt -3 1
vt 0 0
vt -0.6 1
vt -1.2 1
vt -1.8 1
vt -2.4 1
vt 3 0
vt 3 1
vt 0.6 1
vt 1.2 1
vt 1.8 1
vt 2.4 1
vt 0 2
vt 0 3
vt 0.6 3
vt 3 3
vt 3 2
vt 2.4 3
vt -3 2
vt -3 3
vt -2.4 3
vt -0.6 3
vt -0.25 2.4
vt -0.25 1.8
vt -0.25 1.2
vt -0.25 0.6
vt 0.25 0.6
vt 0.25 1.2
vt 0.25 1.8
vt 0.25 2.4
vt -0.6 4
vt 0 4
vt 0 3.5
vt -1.2 4
vt -3 3.5
vt -1.8 4
vt -2.4 4
vt -3 4
vt -0.6 3.5
vt -1.2 3.5
vt -1.8 3.5
vt -2.4 3.5
vt -0.25 1
vt 0.25 1
vt -0.25 2
vt 0.25 2
vt 0.25 3.5
vt -0.25 4
vt 0.25 4
vt -0.25 3.5
vt 3 4
vt 3 3.5
vt 2.4 4
vt 1.8 4
vt 1.2 4
vt 0.6 4
vt 2.4 3.5
vt 1.8 3.5
vt 1.2 3.5
vt 0.6 3.5
vt 0.2499999 3
vt 0.2499999 3.5
vt -0.25 1.2
vt -0.25 0.6

vn 0 -1 0
vn 1 0 0
vn -1 0 0
vn 0 1 0
vn 0 0 1
vn 0 0 -1

usemtl Wall_DarkGrey
f 12/49/5 4/2/5 3/1/5
f 12/49/5 3/1/5 6/50/5
f 21/51/5 12/49/5 6/50/5
f 21/51/5 6/50/5 23/52/5
f 20/4/5 21/51/5 23/52/5
f 20/4/5 23/52/5 24/3/5
f 47/56/5 20/4/5 24/3/5
f 47/56/5 24/3/5 42/53/5
f 30/54/5 47/56/5 42/53/5
f 30/54/5 42/53/5 29/55/5
f 5/49/6 1/2/6 2/1/6
f 5/49/6 2/1/6 11/50/6
f 28/51/6 5/49/6 11/50/6
f 28/51/6 11/50/6 17/52/6
f 27/4/6 28/51/6 17/52/6
f 27/4/6 17/52/6 18/3/6
f 41/56/6 27/4/6 18/3/6
f 41/56/6 18/3/6 48/53/6
f 31/54/6 41/56/6 48/53/6
f 31/54/6 48/53/6 32/55/6
f 36/32/4 31/2/4 32/1/4
f 36/32/4 32/1/4 37/33/4
f 35/31/4 36/32/4 37/33/4
f 35/31/4 37/33/4 38/34/4
f 34/30/4 35/31/4 38/34/4
f 34/30/4 38/34/4 39/35/4
f 33/29/4 34/30/4 39/35/4
f 33/29/4 39/35/4 40/36/4
f 29/4/4 33/29/4 40/36/4
f 29/4/4 40/36/4 30/3/4
f 16/18/3 4/13/3 12/14/3
f 16/18/3 15/17/3 4/13/3
f 15/17/3 14/16/3 4/13/3
f 4/13/3 14/16/3 2/8/3
f 2/8/3 14/16/3 13/15/3
f 13/15/3 11/5/3 2/8/3
f 7/9/2 1/8/2 5/5/2
f 7/9/2 8/10/2 1/8/2
f 1/8/2 8/10/2 3/6/2
f 3/6/2 8/10/2 9/11/2
f 3/6/2 9/11/2 10/12/2
f 10/12/2 6/7/2 3/6/2
f 17/19/3 11/5/3 13/15/3
f 19/21/3 17/19/3 13/15/3
f 19/21/3 18/20/3 17/19/3
f 16/18/3 12/14/3 21/23/3
f 22/24/3 16/18/3 21/23/3
f 22/24/3 21/23/3 20/22/3
f 24/26/2 23/25/2 25/27/2
f 23/25/2 10/12/2 25/27/2
f 23/25/2 6/7/2 10/12/2
f 28/19/2 27/20/2 26/28/2
f 28/19/2 26/28/2 7/9/2
f 7/9/2 5/5/2 28/19/2
f 29/44/2 42/41/2 46/48/2
f 36/37/2 41/39/2 31/38/2
f 36/37/2 43/45/2 41/39/2
f 35/40/2 43/45/2 36/37/2
f 35/40/2 44/46/2 43/45/2
f 34/42/2 44/46/2 35/40/2
f 34/42/2 45/47/2 44/46/2
f 33/43/2 45/47/2 34/42/2
f 33/43/2 46/48/2 45/47/2
f 29/44/2 46/48/2 33/43/2
f 32/38/3 48/39/3 52/66/3
f 40/59/3 47/58/3 30/57/3
f 40/59/3 49/63/3 47/58/3
f 39/60/3 49/63/3 40/59/3
f 39/60/3 50/64/3 49/63/3
f 38/61/3 50/64/3 39/60/3
f 38/61/3 51/65/3 50/64/3
f 37/62/3 51/65/3 38/61/3
f 37/62/3 52/66/3 51/65/3
f 32/38/3 52/66/3 37/62/3
f 4/4/1 2/2/1 1/1/1
f 1/1/1 3/3/1 4/4/1
f 18/20/3 19/21/3 52/66/3
f 52/66/3 48/39/3 18/20/3
f 49/63/3 22/24/3 20/22/3
f 20/22/3 47/58/3 49/63/3
f 41/39/2 43/45/2 26/28/2
f 26/28/2 27/20/2 41/39/2
f 46/48/2 42/41/2 24/26/2
f 24/26/2 25/27/2 46/48/2
f 13/49/5 7/50/5 26/3/5
f 26/3/5 19/4/5 13/49/5
f 10/49/6 16/50/6 22/3/6
f 22/3/6 25/4/6 10/49/6
f 25/4/6 22/3/6 49/53/6
f 49/53/6 46/56/6 25/4/6
f 19/4/5 26/67/5 43/68/5
f 43/68/5 52/56/5 19/4/5
f 44/34/1 51/31/1 52/32/1
f 52/32/1 43/33/1 44/34/1
f 45/35/1 50/30/1 51/31/1
f 51/31/1 44/34/1 45/35/1
f 46/36/1 49/29/1 50/30/1
f 50/30/1 45/35/1 46/36/1
f 9/30/4 15/35/4 16/36/4
f 16/36/4 10/29/4 9/30/4
f 8/69/4 14/34/4 15/35/4
f 15/35/4 9/30/4 8/69/4
f 7/70/4 13/33/4 14/34/4
f 14/34/4 8/69/4 7/70/4

