# ProBuilder 4.1.0
# https://unity3d.com/unity/features/worldbuilding/probuilder
# 2019-09-11 2:32:22 PM

mtllib ./Wall_4m.mtl
o Wall_4m

g Wall_4m
v 0.25 0 3
v -0.25 0 3
v 0.25 2 3
v -0.25 2 3
v -0.25 0 1.5
v -0.25 2 1.5
v 0.25 0 1.5
v 0.25 2 1.5

vt 0.25 0
vt -0.25 0
vt 0.25 2
vt -0.25 2
vt 1.5 0
vt 0 0
vt 1.5 2
vt 0 2
vt -1.5 0
vt -1.5 2
vt -0.25 1.5
vt 0.25 1.5

vn 0 0 1
vn -1 0 0
vn 0 0 -1
vn 1 0 0
vn 0 1 0
vn 0 -1 0

usemtl Wall_Grey
f 3/3/1 4/4/1 2/2/1 1/1/1
f 4/7/2 6/8/2 5/6/2 2/5/2
f 6/3/3 8/4/3 7/2/3 5/1/3
f 8/8/4 3/10/4 1/9/4 7/6/4
f 8/2/5 6/1/5 4/12/5 3/11/5
f 1/12/6 2/11/6 5/2/6 7/1/6

g Wall_4m
v 0.25 2 3
v -0.25 2 3
v 0.25 4 3
v -0.25 4 3
v -0.25 2 1.5
v -0.25 4 1.5
v 0.25 2 1.5
v 0.25 4 1.5

vt 0.25 0
vt -0.25 0
vt 0.25 2
vt -0.25 2
vt 1.5 0
vt 0 0
vt 1.5 2
vt 0 2
vt -1.5 0
vt -1.5 2
vt -0.25 1.5
vt 0.25 1.5

vn 0 0 1
vn -1 0 0
vn 0 0 -1
vn 1 0 0
vn 0 1 0
vn 0 -1 0

usemtl Wall_DarkGrey
f 11/15/7 12/16/7 10/14/7 9/13/7
f 12/19/8 14/20/8 13/18/8 10/17/8
f 14/15/9 16/16/9 15/14/9 13/13/9
f 16/20/10 11/22/10 9/21/10 15/18/10
f 16/14/11 14/13/11 12/24/11 11/23/11
f 9/24/12 10/23/12 13/14/12 15/13/12

g Wall_4m
v 0.25 2 1.5
v -0.25 2 1.5
v 0.25 4 1.5
v -0.25 4 1.5
v -0.25 2 0
v -0.25 4 0
v 0.25 2 0
v 0.25 4 0

vt 0.25 0
vt -0.25 0
vt 0.25 2
vt -0.25 2
vt 1.5 0
vt 0 0
vt 1.5 2
vt 0 2
vt -1.5 0
vt -1.5 2
vt -0.25 1.5
vt 0.25 1.5

vn 0 0 1
vn -1 0 0
vn 0 0 -1
vn 1 0 0
vn 0 1 0
vn 0 -1 0

usemtl Wall_Grey
f 19/27/13 20/28/13 18/26/13 17/25/13
f 20/31/14 22/32/14 21/30/14 18/29/14
f 22/27/15 24/28/15 23/26/15 21/25/15
f 24/32/16 19/34/16 17/33/16 23/30/16
f 24/26/17 22/25/17 20/36/17 19/35/17
f 17/36/18 18/35/18 21/26/18 23/25/18

g Wall_4m
v 0.25 0 1.5
v -0.25 0 1.5
v 0.25 2 1.5
v -0.25 2 1.5
v -0.25 0 0
v -0.25 2 0
v 0.25 0 0
v 0.25 2 0

vt 0.25 0
vt -0.25 0
vt 0.25 2
vt -0.25 2
vt 1.5 0
vt 0 0
vt 1.5 2
vt 0 2
vt -1.5 0
vt -1.5 2
vt -0.25 1.5
vt 0.25 1.5

vn 0 0 1
vn -1 0 0
vn 0 0 -1
vn 1 0 0
vn 0 1 0
vn 0 -1 0

usemtl Wall_DarkGrey
f 27/39/19 28/40/19 26/38/19 25/37/19
f 28/43/20 30/44/20 29/42/20 26/41/20
f 30/39/21 32/40/21 31/38/21 29/37/21
f 32/44/22 27/46/22 25/45/22 31/42/22
f 32/38/23 30/37/23 28/48/23 27/47/23
f 25/48/24 26/47/24 29/38/24 31/37/24

