# ProBuilder 4.1.0
# https://unity3d.com/unity/features/worldbuilding/probuilder
# 2019-09-11 2:20:46 PM

mtllib ./Wall_Door.mtl
o Wall_Door

g Wall_Door
v 0 4 0.25
v -3 4 0.25
v 0 4 -0.25
v -3 4 -0.25
v -3 0 0.25
v -3 0 -0.25
v -3 0.5 0.25
v -3 1 0.25
v -3 1.5 0.25
v -3 2 0.25
v -3 2.5 0.25
v -3 3 0.25
v -3 3.5 0.25
v -3 3.5 -0.25
v -3 3 -0.25
v -3 2.5 -0.25
v -3 2 -0.25
v -3 1.5 -0.25
v -3 1 -0.25
v -3 0.5 -0.25
v 0 0 -0.25
v 0 0 0.25
v 0 3.5 0.25
v 0 3 0.25
v 0 2.5 0.25
v 0 2 0.25
v 0 1.5 0.25
v 0 1 0.25
v 0 0.5 0.25
v 0 3.5 -0.25
v 0 3 -0.25
v 0 2.5 -0.25
v 0 2 -0.25
v 0 1.5 -0.25
v 0 1 -0.25
v 0 0.5 -0.25
v -0.5 2.5 -0.25
v -1 2.5 -0.25
v -1.5 2.5 -0.25
v -2 2.5 -0.25
v -2.5 2.5 -0.25
v -2.5 2.5 0.25
v -2 2.5 0.25
v -1.5 2.5 0.25
v -0.9999999 2.5 0.25
v -0.5000001 2.5 0.25
v -2.5 0 0.25
v -0.5000001 0 0.25
v -0.5000001 0 -0.25
v -2.5 0 -0.25

vt 0 0.25
vt 3 0.25
vt 0 -0.25
vt 3 -0.25
vt 0.25 0
vt -0.25 0
vt 0.25 4
vt -0.25 4
vt 0.25 0.5
vt 0.25 1
vt 0.25 1.5
vt 0.25 2
vt 0.25 2.5
vt 0.25 3
vt 0.25 3.5
vt -0.25 3.5
vt -0.25 3
vt -0.25 2.5
vt -0.25 2
vt -0.25 1.5
vt -0.25 1
vt -0.25 0.5
vt 3 4
vt 0 3.5
vt 0 4
vt 3 3.5
vt 0 3
vt 3 3
vt 0 2.5
vt 3 2.5
vt 0.5 2.5
vt 1 2.5
vt 1.5 2.5
vt 2 2.5
vt 2.5 2.5
vt -3 2.5
vt -3 3
vt -3 3.5
vt -3 4
vt -2.5 2.5
vt -2 2.5
vt -1.5 2.5
vt -0.9999999 2.5
vt -0.5000001 2.5
vt -2.5 0
vt -3 0
vt -3 0.5
vt -3 1
vt -3 1.5
vt -3 2
vt 0 2
vt 0 1.5
vt 0 1
vt 0 0.5
vt 0 0
vt -0.5000001 0
vt 0.5000001 0
vt 3 2
vt 3 1.5
vt 3 1
vt 3 0.5
vt 3 0
vt 2.5 0
vt -0.5000001 0.25
vt -0.5000001 -0.25
vt -2.5 -0.25
vt -3 -0.25
vt -3 0.25
vt -2.5 0.25
vt -2 0.25
vt -2 -0.25
vt -1.5 0.25
vt -1.5 -0.25
vt -0.9999999 0.25
vt -1 -0.25

vn 0 1 0
vn -1 0 0
vn 1 0 0
vn 0 0 -1
vn 0 0 1
vn 0 -1 0

usemtl Wall_DarkGrey
f 20/22/2 6/6/2 5/5/2
f 20/22/2 5/5/2 7/9/2
f 19/21/2 20/22/2 7/9/2
f 19/21/2 7/9/2 8/10/2
f 18/20/2 19/21/2 8/10/2
f 18/20/2 8/10/2 9/11/2
f 17/19/2 18/20/2 9/11/2
f 17/19/2 9/11/2 10/12/2
f 16/18/2 17/19/2 10/12/2
f 16/18/2 10/12/2 11/13/2
f 15/17/2 16/18/2 11/13/2
f 15/17/2 11/13/2 12/14/2
f 14/16/2 15/17/2 12/14/2
f 14/16/2 12/14/2 13/15/2
f 4/8/2 14/16/2 13/15/2
f 4/8/2 13/15/2 2/7/2
f 29/22/3 22/6/3 21/5/3
f 29/22/3 21/5/3 36/9/3
f 28/21/3 29/22/3 36/9/3
f 28/21/3 36/9/3 35/10/3
f 27/20/3 28/21/3 35/10/3
f 27/20/3 35/10/3 34/11/3
f 26/19/3 27/20/3 34/11/3
f 26/19/3 34/11/3 33/12/3
f 25/18/3 26/19/3 33/12/3
f 25/18/3 33/12/3 32/13/3
f 24/17/3 25/18/3 32/13/3
f 24/17/3 32/13/3 31/14/3
f 23/16/3 24/17/3 31/14/3
f 23/16/3 31/14/3 30/15/3
f 1/8/3 23/16/3 30/15/3
f 1/8/3 30/15/3 3/7/3
f 46/44/5 25/29/5 24/27/5
f 46/44/5 24/27/5 23/24/5
f 45/43/5 46/44/5 23/24/5
f 23/24/5 44/42/5 45/43/5
f 1/25/5 44/42/5 23/24/5
f 12/37/5 11/36/5 42/40/5
f 13/38/5 12/37/5 42/40/5
f 43/41/5 13/38/5 42/40/5
f 43/41/5 2/39/5 13/38/5
f 2/39/5 43/41/5 44/42/5
f 44/42/5 1/25/5 2/39/5
f 41/35/4 16/30/4 15/28/4
f 41/35/4 15/28/4 14/26/4
f 40/34/4 41/35/4 14/26/4
f 4/23/4 40/34/4 14/26/4
f 39/33/4 40/34/4 4/23/4
f 31/27/4 32/29/4 37/31/4
f 30/24/4 31/27/4 37/31/4
f 38/32/4 30/24/4 37/31/4
f 38/32/4 3/25/4 30/24/4
f 3/25/4 38/32/4 39/33/4
f 39/33/4 4/23/4 3/25/4
f 7/47/5 5/46/5 47/45/5
f 8/48/5 7/47/5 47/45/5
f 9/49/5 8/48/5 47/45/5
f 47/45/5 42/40/5 9/49/5
f 42/40/5 10/50/5 9/49/5
f 42/40/5 11/36/5 10/50/5
f 48/56/5 22/55/5 29/54/5
f 48/56/5 29/54/5 28/53/5
f 48/56/5 28/53/5 27/52/5
f 46/44/5 48/56/5 27/52/5
f 26/51/5 46/44/5 27/52/5
f 46/44/5 26/51/5 25/29/5
f 34/52/4 49/57/4 37/31/4
f 34/52/4 35/53/4 49/57/4
f 35/53/4 36/54/4 49/57/4
f 36/54/4 21/55/4 49/57/4
f 34/52/4 37/31/4 33/51/4
f 32/29/4 33/51/4 37/31/4
f 17/58/4 16/30/4 41/35/4
f 18/59/4 17/58/4 41/35/4
f 18/59/4 41/35/4 50/63/4
f 50/63/4 19/60/4 18/59/4
f 50/63/4 20/61/4 19/60/4
f 50/63/4 6/62/4 20/61/4
f 4/4/1 2/2/1 1/1/1
f 1/1/1 3/3/1 4/4/1
f 22/1/6 48/64/6 49/65/6
f 49/65/6 21/3/6 22/1/6
f 47/69/6 5/68/6 6/67/6
f 6/67/6 50/66/6 47/69/6
f 40/71/6 43/70/6 42/69/6
f 42/69/6 41/66/6 40/71/6
f 41/13/3 42/18/3 47/6/3
f 47/6/3 50/5/3 41/13/3
f 39/73/6 44/72/6 43/70/6
f 43/70/6 40/71/6 39/73/6
f 38/75/6 45/74/6 44/72/6
f 44/72/6 39/73/6 38/75/6
f 37/65/6 46/64/6 45/74/6
f 45/74/6 38/75/6 37/65/6
f 49/6/2 48/5/2 46/13/2
f 46/13/2 37/18/2 49/6/2

