# ProBuilder 4.1.0
# https://unity3d.com/unity/features/worldbuilding/probuilder
# 2019-09-11 2:21:05 PM

mtllib ./Wall_DoorLarge.mtl
o Wall_DoorLarge

g Wall_DoorLarge
v 0 4 0.25
v -3 4 0.25
v 0 4 -0.25
v -3 4 -0.25
v -3 0 0.25
v -3 0 -0.25
v -3 0.5 0.25
v -3 1 0.25
v -3 1.5 0.25
v -3 2 0.25
v -3 2.5 0.25
v -3 3 0.25
v -3 3.5 0.25
v -3 3.5 -0.25
v -3 3 -0.25
v -3 2.5 -0.25
v -3 2 -0.25
v -3 1.5 -0.25
v -3 1 -0.25
v -3 0.5 -0.25
v 0 0 -0.25
v 0 0 0.25
v 0 3.5 0.25
v 0 3 0.25
v 0 2.5 0.25
v 0 2 0.25
v 0 1.5 0.25
v 0 1 0.25
v 0 0.5 0.25
v 0 3.5 -0.25
v 0 3 -0.25
v 0 2.5 -0.25
v 0 2 -0.25
v 0 1.5 -0.25
v 0 1 -0.25
v 0 0.5 -0.25
v -0.5000001 0 0.25
v -0.5000001 0 -0.25
v -2.5 0 -0.25
v -2.5 0 0.25
v -2 3.5 -0.25
v -1.5 3.5 -0.25
v -1 3.5 -0.25
v -0.5 3.5 -0.25
v -0.5 3.5 0.25
v -1 3.5 0.25
v -1.5 3.5 0.25
v -2 3.5 0.25
v -2.5 3.5 0.25
v -2.5 3.5 -0.25
v -0.5 2.5 -0.25
v -0.5000001 2.5 0.25
v -2.5 2.5 -0.25
v -2.5 2.5 0.25

vt 0 0.25
vt 3 0.25
vt 0 -0.25
vt 3 -0.25
vt 0.25 0
vt -0.25 0
vt 0.25 4
vt -0.25 4
vt 0.25 0.5
vt 0.25 1
vt 0.25 1.5
vt 0.25 2
vt 0.25 2.5
vt 0.25 3
vt 0.25 3.5
vt -0.25 3.5
vt -0.25 3
vt -0.25 2.5
vt -0.25 2
vt -0.25 1.5
vt -0.25 1
vt -0.25 0.5
vt -0.5000001 0.25
vt -0.5000001 -0.25
vt -2.5 -0.25
vt -3 -0.25
vt -3 0.25
vt -2.5 0.25
vt -2 -0.25
vt -1.5 -0.25
vt -1 -0.25
vt -1 0.25
vt -1.5 0.25
vt -2 0.25
vt -0.25 2.5
vt -0.25 -8.023703E-09
vt -0.25 3.5
vt 3 3.5
vt 3 4
vt 0 4
vt 0 3.5
vt 0 3
vt 0 2.5
vt 0 2
vt 0 1.5
vt 0 1
vt 0 0.5
vt 0 0
vt 0.5000001 0
vt 0.5 2.5
vt 0.5 3.5
vt 1 3.5
vt 1.5 3.5
vt 2 3.5
vt 2.5 3.5
vt 2.5 2.5
vt 2.5 0
vt 3 0
vt 3 0.5
vt 3 1
vt 3 1.5
vt 3 2
vt 3 2.5
vt 3 3
vt -3 4
vt -3 3.5
vt -3 3
vt -3 2.5
vt -3 2
vt -3 1.5
vt -3 1
vt -3 0.5
vt -3 0
vt -2.5 0
vt -2.5 2.5
vt -2.5 3.5
vt -2 3.5
vt -1.5 3.5
vt -1 3.5
vt -0.5 3.5
vt -0.5000001 2.5
vt -0.5000001 0

vn 0 1 0
vn -1 0 0
vn 1 0 0
vn 0 -1 0
vn 0 0 -1
vn 0 0 1

usemtl Wall_DarkGrey
f 20/22/2 6/6/2 5/5/2
f 20/22/2 5/5/2 7/9/2
f 19/21/2 20/22/2 7/9/2
f 19/21/2 7/9/2 8/10/2
f 18/20/2 19/21/2 8/10/2
f 18/20/2 8/10/2 9/11/2
f 17/19/2 18/20/2 9/11/2
f 17/19/2 9/11/2 10/12/2
f 16/18/2 17/19/2 10/12/2
f 16/18/2 10/12/2 11/13/2
f 15/17/2 16/18/2 11/13/2
f 15/17/2 11/13/2 12/14/2
f 14/16/2 15/17/2 12/14/2
f 14/16/2 12/14/2 13/15/2
f 4/8/2 14/16/2 13/15/2
f 4/8/2 13/15/2 2/7/2
f 29/22/3 22/6/3 21/5/3
f 29/22/3 21/5/3 36/9/3
f 28/21/3 29/22/3 36/9/3
f 28/21/3 36/9/3 35/10/3
f 27/20/3 28/21/3 35/10/3
f 27/20/3 35/10/3 34/11/3
f 26/19/3 27/20/3 34/11/3
f 26/19/3 34/11/3 33/12/3
f 25/18/3 26/19/3 33/12/3
f 25/18/3 33/12/3 32/13/3
f 24/17/3 25/18/3 32/13/3
f 24/17/3 32/13/3 31/14/3
f 23/16/3 24/17/3 31/14/3
f 23/16/3 31/14/3 30/15/3
f 1/8/3 23/16/3 30/15/3
f 1/8/3 30/15/3 3/7/3
f 46/32/4 43/31/4 45/23/4
f 42/30/4 43/31/4 46/32/4
f 47/33/4 42/30/4 46/32/4
f 41/29/4 42/30/4 47/33/4
f 48/34/4 41/29/4 47/33/4
f 50/25/4 41/29/4 48/34/4
f 49/28/4 50/25/4 48/34/4
f 43/31/4 44/24/4 45/23/4
f 52/13/2 38/36/2 37/5/2
f 52/13/2 51/35/2 38/36/2
f 44/37/2 51/35/2 52/13/2
f 44/37/2 52/13/2 45/15/2
f 49/16/3 54/18/3 50/15/3
f 54/18/3 53/13/3 50/15/3
f 54/18/3 40/6/3 53/13/3
f 40/6/3 39/5/3 53/13/3
f 4/39/5 3/40/5 42/53/5
f 42/53/5 41/54/5 4/39/5
f 41/54/5 50/55/5 4/39/5
f 50/55/5 14/38/5 4/39/5
f 15/64/5 14/38/5 50/55/5
f 53/56/5 15/64/5 50/55/5
f 53/56/5 16/63/5 15/64/5
f 17/62/5 16/63/5 53/56/5
f 18/61/5 17/62/5 53/56/5
f 18/61/5 53/56/5 19/60/5
f 53/56/5 39/57/5 19/60/5
f 39/57/5 20/59/5 19/60/5
f 39/57/5 6/58/5 20/59/5
f 3/40/5 43/52/5 42/53/5
f 3/40/5 44/51/5 43/52/5
f 3/40/5 30/41/5 44/51/5
f 30/41/5 31/42/5 44/51/5
f 51/50/5 44/51/5 31/42/5
f 31/42/5 32/43/5 51/50/5
f 32/43/5 33/44/5 51/50/5
f 34/45/5 51/50/5 33/44/5
f 51/50/5 34/45/5 35/46/5
f 35/46/5 38/49/5 51/50/5
f 35/46/5 36/47/5 38/49/5
f 36/47/5 21/48/5 38/49/5
f 37/82/6 22/48/6 29/47/6
f 37/82/6 29/47/6 28/46/6
f 52/81/6 37/82/6 28/46/6
f 28/46/6 27/45/6 52/81/6
f 26/44/6 52/81/6 27/45/6
f 52/81/6 26/44/6 25/43/6
f 52/81/6 25/43/6 24/42/6
f 24/42/6 45/80/6 52/81/6
f 45/80/6 24/42/6 23/41/6
f 45/80/6 23/41/6 1/40/6
f 46/79/6 45/80/6 1/40/6
f 47/78/6 46/79/6 1/40/6
f 7/72/6 5/73/6 40/74/6
f 8/71/6 7/72/6 40/74/6
f 8/71/6 40/74/6 54/75/6
f 8/71/6 54/75/6 9/70/6
f 54/75/6 10/69/6 9/70/6
f 54/75/6 11/68/6 10/69/6
f 12/67/6 11/68/6 54/75/6
f 49/76/6 12/67/6 54/75/6
f 49/76/6 13/66/6 12/67/6
f 2/65/6 13/66/6 49/76/6
f 2/65/6 49/76/6 48/77/6
f 2/65/6 48/77/6 47/78/6
f 47/78/6 1/40/6 2/65/6
f 4/4/1 2/2/1 1/1/1
f 1/1/1 3/3/1 4/4/1
f 22/1/4 37/23/4 38/24/4
f 38/24/4 21/3/4 22/1/4
f 40/28/4 5/27/4 6/26/4
f 6/26/4 39/25/4 40/28/4

