# ProBuilder 4.1.0
# https://unity3d.com/unity/features/worldbuilding/probuilder
# 2019-09-11 2:31:58 PM

mtllib ./Wall_1m.mtl
o Wall_1m

g Wall_1m
v 0.25 0 1.5
v -0.25 0 1.5
v 0.25 1 1.5
v -0.25 1 1.5
v -0.25 0 0
v -0.25 1 0
v 0.25 0 0
v 0.25 1 0

vt 0.25 0
vt -0.25 0
vt 0.25 1
vt -0.25 1
vt 1.5 0
vt 0 0
vt 1.5 1
vt 0 1
vt -1.5 0
vt -1.5 1
vt -0.25 1.5
vt 0.25 1.5

vn 0 0 1
vn -1 0 0
vn 0 0 -1
vn 1 0 0
vn 0 1 0
vn 0 -1 0

usemtl Wall_DarkGrey
f 3/3/1 4/4/1 2/2/1 1/1/1
f 4/7/2 6/8/2 5/6/2 2/5/2
f 6/3/3 8/4/3 7/2/3 5/1/3
f 8/8/4 3/10/4 1/9/4 7/6/4
f 8/2/5 6/1/5 4/12/5 3/11/5
f 1/12/6 2/11/6 5/2/6 7/1/6

g Wall_1m
v 0.25 0 3
v -0.25 0 3
v 0.25 1 3
v -0.25 1 3
v -0.25 0 1.5
v -0.25 1 1.5
v 0.25 0 1.5
v 0.25 1 1.5

vt 0.25 0
vt -0.25 0
vt 0.25 1
vt -0.25 1
vt 1.5 0
vt 0 0
vt 1.5 1
vt 0 1
vt -1.5 0
vt -1.5 1
vt -0.25 1.5
vt 0.25 1.5

vn 0 0 1
vn -1 0 0
vn 0 0 -1
vn 1 0 0
vn 0 1 0
vn 0 -1 0

usemtl Wall_Grey
f 11/15/7 12/16/7 10/14/7 9/13/7
f 12/19/8 14/20/8 13/18/8 10/17/8
f 14/15/9 16/16/9 15/14/9 13/13/9
f 16/20/10 11/22/10 9/21/10 15/18/10
f 16/14/11 14/13/11 12/24/11 11/23/11
f 9/24/12 10/23/12 13/14/12 15/13/12

