# ProBuilder 4.1.0
# https://unity3d.com/unity/features/worldbuilding/probuilder
# 9/30/2019 12:08:33 PM

mtllib ./Diamond_Sign.mtl
o Diamond_Sign

g Torus
v 0 0 0
v 0.45 0.2598076 0
v 0.45 -0.2598076 0
v 0.9999999 0 -0.9999999
v 0.9999999 0.2598076 -0.5499999
v 0.9999999 -0.2598076 -0.55
v 2 0 8.742278E-08
v 1.55 0.2598076 4.808252E-08
v 1.55 -0.2598076 4.808253E-08
v 0.9999999 0 0.9999999
v 0.9999999 0.2598076 0.5499999
v 0.9999999 -0.2598076 0.55

vt 0 0
vt -0.45 0
vt 0.45 0.2598076
vt 0.45 -0.2598076
vt 0.45 0
vt -0.9999999 -0.9999999
vt -0.9999999 -0.5499999
vt 0.9999999 0.2598076
vt 0.9999999 -0.2598076
vt 0.9999999 -0.55
vt 0.9999999 -0.9999999
vt -2 8.742278E-08
vt -1.55 4.808252E-08
vt 1.55 0.2598076
vt 1.55 -0.2598076
vt 1.55 4.808253E-08
vt 2 8.742278E-08
vt -1.55 0.2598076
vt -1.55 -0.2598076
vt -0.9999999 0.9999999
vt -0.9999999 0.5499999
vt -0.9999999 0.2598076
vt -0.9999999 -0.2598076
vt 0.9999999 0.55
vt 0.9999999 0.9999999
vt -0.45 0.2598076
vt -0.45 -0.2598076

vn -1 1.666E-07 0
vn 0.3180936 0.9480593 7.295247E-08
vn 0.3180934 -0.9480594 3.647624E-08
vn -1.666E-08 1.666E-07 -1
vn 3.647623E-08 0.9480593 0.3180936
vn 1.823812E-08 -0.9480594 0.3180935
vn 1 1.3328E-07 -1.666E-08
vn -0.3180935 0.9480593 -7.295247E-08
vn -0.3180934 -0.9480594 -5.471436E-08
vn -1.1662E-07 1.3328E-07 1
vn 0 0.9480593 -0.3180936
vn 3.647623E-08 -0.9480594 -0.3180934

usemtl Sign_Orange_Emissive
f 2/2/2 5/7/5 4/6/4 1/1/1
f 3/4/3 6/9/6 5/8/5 2/3/2
f 1/1/1 4/11/4 6/10/6 3/5/3
f 5/7/5 8/13/8 7/12/7 4/6/4
f 6/9/6 9/15/9 8/14/8 5/8/5
f 4/11/4 7/17/7 9/16/9 6/10/6
f 8/13/8 11/21/11 10/20/10 7/12/7
f 9/19/9 12/23/12 11/22/11 8/18/8
f 7/17/7 10/25/10 12/24/12 9/16/9
f 11/21/11 2/2/2 1/1/1 10/20/10
f 12/23/12 3/27/3 2/26/2 11/22/11
f 10/25/10 1/1/1 3/5/3 12/24/12

