# ProBuilder 4.1.0
# https://unity3d.com/unity/features/worldbuilding/probuilder
# 9/30/2019 10:19:00 AM

mtllib ./Pyramid_Sign.mtl
o Pyramid_Sign

g Prism
v 0 0 0
v -1 0 0
v -0.5 0.75 0.5
v -1 0 1
v 0 0 1

vt 0 0
vt 1 0
vt 0.5 0.9013878
vt 0 -0.5547001
vt 1 -0.5547001
vt 0.5 0.3466877
vt -1 -0.5547001
vt -0.5 0.3466877
vt -1 0
vt -0.5 0.9013878
vt 0 1
vt -1 1

vn 0 0.5547002 -0.8320503
vn -0.8320503 0.5547002 0
vn -0.4160252 0.2773501 0
vn 0 0 0
vn 0 0.5547002 0.8320503
vn 0.8320503 0.5547002 0
vn 0.4160252 0.2773501 0
vn 0 -1 0

usemtl Sign_Teal_Transparent
f 1/1/1 2/2/1 3/3/1
f 4/7/5 5/4/5 3/8/5
f 3/6/3 2/4/2 4/5/3
f 4/5/3 3/6/4 3/6/3
f 3/10/7 5/9/6 1/1/7
f 1/1/7 3/10/4 3/10/7
f 4/12/8 2/9/8 1/1/8
f 1/1/8 5/11/8 4/12/8

